<?xml version="1.0" standalone="no"?>
<!DOCTYPE svg PUBLIC "-//W3C//DTD SVG 20010904//EN"
 "http://www.w3.org/TR/2001/REC-SVG-20010904/DTD/svg10.dtd">
<svg version="1.0" xmlns="http://www.w3.org/2000/svg"
 width="500.000000pt" height="500.000000pt" viewBox="0 0 500.000000 500.000000"
 preserveAspectRatio="xMidYMid meet">

<g transform="translate(0.000000,500.000000) scale(0.100000,-0.100000)"
fill="#000000" stroke="none">
<path d="M0 2500 l0 -2500 2500 0 2500 0 0 2500 0 2500 -2500 0 -2500 0 0
-2500z m1613 1076 c266 -51 448 -141 582 -288 118 -131 196 -316 229 -545 l6
-43 -148 0 -149 0 -17 86 c-58 296 -215 465 -505 541 -85 23 -122 26 -318 30
l-223 5 0 -331 0 -331 -145 0 -145 0 0 448 c0 247 2 451 4 453 2 2 170 1 373
-2 281 -5 389 -10 456 -23z m1955 24 c183 -11 298 -37 409 -91 97 -46 196
-133 235 -206 89 -164 83 -401 -14 -548 l-33 -50 -175 -3 -175 -2 45 28 c56
36 81 64 112 122 20 39 23 59 23 155 0 103 -2 113 -30 163 -36 66 -70 96 -160
139 -116 55 -176 63 -487 63 l-278 0 0 -335 0 -335 -140 0 -140 0 0 455 0 455
328 0 c180 0 396 -5 480 -10z m-2923 -984 c42 -18 55 -42 55 -100 0 -67 -30
-98 -103 -104 l-57 -4 0 111 0 111 35 0 c20 0 51 -6 70 -14z m285 -1 c0 -12
-13 -15 -55 -15 l-55 0 0 -35 0 -35 50 0 c28 0 50 -4 50 -10 0 -5 -22 -10 -50
-10 l-50 0 0 -35 0 -35 55 0 c42 0 55 -3 55 -15 0 -12 -14 -15 -70 -15 l-70 0
0 103 c0 57 3 107 7 110 3 4 35 7 70 7 49 0 63 -3 63 -15z m230 0 c0 -12 -13
-15 -55 -15 l-55 0 0 -35 0 -35 50 0 c28 0 50 -4 50 -10 0 -5 -22 -10 -50 -10
l-50 0 0 -35 0 -35 55 0 c42 0 55 -3 55 -15 0 -12 -14 -15 -70 -15 l-70 0 0
103 c0 57 3 107 7 110 3 4 35 7 70 7 49 0 63 -3 63 -15z m232 -15 c25 -30 23
-56 -7 -85 -18 -18 -35 -25 -65 -25 l-40 0 0 -40 c0 -29 -4 -40 -15 -40 -12 0
-15 18 -15 103 0 57 3 107 8 111 4 4 31 6 61 4 41 -4 59 -10 73 -28z m328 17
c28 -14 39 -59 20 -82 -9 -11 -8 -18 4 -30 22 -22 20 -51 -4 -75 -16 -16 -33
-20 -80 -20 l-60 0 0 103 c0 57 3 107 7 110 11 12 87 7 113 -6z m160 -32 l0
-45 60 0 60 0 0 45 c0 25 5 45 10 45 6 0 10 -43 10 -110 0 -67 -4 -110 -10
-110 -5 0 -10 23 -10 50 l0 50 -60 0 -60 0 0 -50 c0 -38 -4 -50 -15 -50 -12 0
-15 19 -15 110 0 91 3 110 15 110 11 0 15 -12 15 -45z m374 -57 c41 -116 41
-118 22 -118 -8 0 -17 14 -21 30 -6 28 -10 30 -51 30 -41 0 -46 -3 -55 -30 -6
-16 -17 -30 -25 -30 -8 0 -14 2 -14 5 0 7 69 195 75 206 17 26 35 1 69 -93z
m266 87 c0 -10 -10 -15 -30 -15 l-30 0 0 -95 c0 -78 -3 -95 -15 -95 -12 0 -15
17 -15 95 l0 95 -35 0 c-24 0 -35 5 -35 15 0 12 16 15 80 15 64 0 80 -3 80
-15z m228 -2 c2 -9 -8 -13 -32 -13 l-36 0 0 -95 c0 -78 -3 -95 -15 -95 -12 0
-15 17 -15 95 l0 95 -35 0 c-25 0 -35 4 -35 15 0 13 14 15 82 13 54 -2 83 -7
86 -15z m214 -93 c44 -123 41 -110 24 -110 -8 0 -19 14 -25 30 -9 27 -14 30
-55 30 -40 0 -45 -3 -55 -30 -5 -16 -17 -30 -25 -30 -16 0 -16 -1 51 178 24
65 41 52 85 -68z m249 97 c9 -7 21 -22 28 -34 10 -19 9 -23 -3 -23 -9 0 -20 9
-26 20 -8 14 -21 20 -45 20 -42 0 -55 -20 -55 -89 0 -43 4 -53 25 -67 28 -18
60 -11 75 17 11 19 40 27 40 10 0 -4 -9 -20 -21 -35 -16 -21 -29 -26 -64 -26
-35 0 -48 5 -64 26 -41 53 -35 146 12 179 26 18 76 19 98 2z m149 -32 l0 -45
60 0 60 0 0 45 c0 33 4 45 15 45 12 0 15 -19 15 -110 0 -91 -3 -110 -15 -110
-11 0 -15 12 -15 50 l0 50 -60 0 -60 0 0 -50 c0 -27 -4 -50 -10 -50 -6 0 -10
43 -10 110 0 67 4 110 10 110 6 0 10 -20 10 -45z m382 -60 c42 -114 43 -115
25 -115 -7 0 -18 14 -24 30 -10 27 -15 30 -56 30 -42 0 -46 -2 -52 -30 -4 -16
-13 -30 -21 -30 -19 0 -19 -1 23 117 27 79 40 103 52 101 10 -2 30 -40 53
-103z m256 89 c29 -20 31 -78 3 -96 -18 -11 -18 -12 0 -56 23 -52 23 -52 5
-52 -8 0 -22 20 -32 45 -14 39 -21 45 -45 45 -28 0 -29 -2 -29 -45 0 -33 -4
-45 -15 -45 -12 0 -15 19 -15 110 l0 110 53 0 c31 0 61 -6 75 -16z m182 -78
c0 -52 -3 -101 -6 -110 -8 -22 -74 -22 -74 -1 0 9 6 15 13 14 35 -4 37 1 37
96 0 78 3 95 15 95 12 0 15 -17 15 -94z m235 79 c0 -5 -24 -11 -52 -13 l-53
-3 0 -35 0 -34 50 0 c28 0 50 -4 50 -10 0 -5 -22 -10 -50 -10 l-50 0 0 -34 c0
-35 0 -35 52 -38 30 -2 53 -8 56 -15 3 -10 -15 -13 -67 -13 l-71 0 0 110 0
111 68 -3 c37 -2 67 -7 67 -13z m230 0 c0 -5 -24 -11 -52 -13 l-53 -3 0 -35 0
-34 50 0 c28 0 50 -4 50 -10 0 -5 -22 -10 -50 -10 l-50 0 0 -34 c0 -35 0 -35
52 -38 30 -2 53 -8 56 -15 3 -10 -15 -13 -67 -13 l-71 0 0 110 0 111 68 -3
c37 -2 67 -7 67 -13z m-3573 -637 l3 -323 75 -3 c125 -6 347 16 450 43 183 48
320 141 410 279 46 71 96 202 106 279 l7 47 149 0 150 0 -6 -47 c-4 -27 -17
-84 -28 -128 -92 -348 -314 -566 -671 -660 -159 -42 -250 -49 -602 -50 l-330
0 -3 443 -2 442 145 0 145 0 2 -322z m1968 -10 l0 -331 293 6 c331 6 410 17
524 73 138 67 188 156 181 322 -5 108 -22 153 -85 222 l-35 40 169 0 169 0 22
-45 c31 -65 52 -165 52 -253 -1 -316 -181 -502 -555 -569 -72 -13 -184 -17
-552 -20 l-463 -5 0 446 0 446 140 0 140 0 0 -332z"/>
<path d="M570 2514 l0 -86 33 7 c51 11 67 32 67 86 0 54 -23 79 -72 79 l-28 0
0 -86z"/>
<path d="M1282 2558 c3 -36 7 -44 26 -46 29 -4 72 23 72 46 0 28 -21 42 -63
42 l-38 0 3 -42z"/>
<path d="M1630 2565 c0 -33 2 -35 34 -35 44 0 70 24 56 51 -8 14 -21 19 -50
19 -39 0 -40 -1 -40 -35z"/>
<path d="M1630 2470 c0 -36 3 -40 24 -40 42 0 76 18 76 39 0 25 -28 41 -69 41
-29 0 -31 -2 -31 -40z"/>
<path d="M2192 2570 c-26 -67 -26 -70 7 -70 34 0 36 7 16 60 l-13 35 -10 -25z"/>
<path d="M2888 2545 l-17 -45 35 0 c32 0 35 2 28 23 -3 12 -12 32 -18 45 -11
21 -12 20 -28 -23z"/>
<path d="M3672 2551 c-16 -52 -16 -51 19 -51 32 0 33 2 8 68 -11 30 -14 28
-27 -17z"/>
<path d="M3900 2565 l0 -36 43 3 c39 3 42 5 42 33 0 28 -3 30 -42 33 l-43 3 0
-36z"/>
</g>
</svg>
